<svg xmlns="http://www.w3.org/2000/svg" viewBox="0 0 16 16"><g fill="currentColor" class="nc-icon-wrapper"><path d="M8,0a8,8,0,1,0,8,8A8.024,8.024,0,0,0,8,0ZM8,14a6,6,0,1,1,6-6A6.018,6.018,0,0,1,8,14Z"></path><circle data-color="color-2" cx="8" cy="12" r="1"></circle><path data-color="color-2" d="M8,10A1,1,0,0,1,7,9,3.056,3.056,0,0,1,8.322,6.573c.5-.425.622-.57.622-.906C8.944,5.484,8.944,5,8,5a2.046,2.046,0,0,0-1.258.561A1,1,0,0,1,5.369,4.105,4.081,4.081,0,0,1,7.948,3h0a2.68,2.68,0,0,1,2.993,2.666A3.054,3.054,0,0,1,9.623,8.092C9.126,8.519,9,8.663,9,9A1,1,0,0,1,8,10Z"></path></g></svg>