<svg xmlns="http://www.w3.org/2000/svg" viewBox="0 0 16 16"><g fill="currentColor" class="nc-icon-wrapper"><path d="M8,0C3.6,0,0,3.6,0,8s3.6,8,8,8,8-3.6,8-8S12.4,0,8,0Zm0,14c-3.3,0-6-2.7-6-6S4.7,2,8,2s6,2.7,6,6-2.7,6-6,6Z"></path><path data-color="color-2" d="M11.5,7h-2.5v-2.5c0-.276-.224-.5-.5-.5h-1c-.276,0-.5,.224-.5,.5v2.5h-2.5c-.276,0-.5,.224-.5,.5v1c0,.276,.224,.5,.5,.5h2.5v2.5c0,.276,.224,.5,.5,.5h1c.276,0,.5-.224,.5-.5v-2.5h2.5c.276,0,.5-.224,.5-.5v-1c0-.276-.224-.5-.5-.5Z"></path></g></svg>