<svg xmlns="http://www.w3.org/2000/svg" viewBox="0 0 16 16"><g fill="currentColor" class="nc-icon-wrapper"><path d="M5.803,1.534C2.516,1.534,0,3.765,0,6.196s2.172,3.841,2.172,3.841l-0.353,1.338 c-0.047,0.176,0.142,0.322,0.301,0.232l1.587-0.899c0.702,0.223,2.191,0.295,2.336,0.301c-0.104-0.361-0.155-0.716-0.155-1.048 c0-1.877,1.634-4.52,5.266-4.52c0.083,0,0.165,0.002,0.248,0.005C10.918,3.134,8.516,1.534,5.803,1.534z M3.639,5.408 c-0.398,0-0.721-0.323-0.721-0.721c0-0.398,0.323-0.721,0.721-0.721c0.398,0,0.721,0.323,0.721,0.721 C4.361,5.085,4.038,5.408,3.639,5.408z M7.832,5.408c-0.398,0-0.721-0.323-0.721-0.721c0-0.398,0.323-0.721,0.721-0.721 c0.398,0,0.721,0.323,0.721,0.721C8.553,5.085,8.231,5.408,7.832,5.408z"></path> <path data-color="color-2" d="M16,9.668c0-2.13-2.499-3.69-4.847-3.69c-3.321,0-4.73,2.398-4.73,3.983 c0,1.588,1.409,3.983,4.73,3.983c0.735,0,1.381-0.105,1.943-0.292l1.249,0.793c0.099,0.063,0.223-0.026,0.197-0.14l-0.283-1.23 C15.439,12.254,16,10.958,16,9.668z M9.635,9.263c-0.352,0-0.637-0.285-0.637-0.637c0-0.352,0.285-0.637,0.637-0.637 c0.352,0,0.637,0.285,0.637,0.637C10.272,8.978,9.987,9.263,9.635,9.263z M12.822,9.263c-0.352,0-0.637-0.285-0.637-0.637 c0-0.352,0.285-0.637,0.637-0.637s0.637,0.285,0.637,0.637C13.459,8.978,13.173,9.263,12.822,9.263z"></path> </g></svg>