<svg xmlns="http://www.w3.org/2000/svg" viewBox="0 0 16 16"><g fill="currentColor" class="nc-icon-wrapper"><path d="M15.428,4.866l-1-1.732a.5.5,0,0,0-.638-.206l-2.14.966A5.477,5.477,0,0,0,9.731,2.782L9.5.45A.5.5,0,0,0,9,0H7a.5.5,0,0,0-.5.45L6.269,2.782A5.477,5.477,0,0,0,4.35,3.894L2.21,2.928a.5.5,0,0,0-.638.206l-1,1.732a.5.5,0,0,0,.141.656l1.9,1.366a5.528,5.528,0,0,0,0,2.224l-1.9,1.366a.5.5,0,0,0-.141.656l1,1.732a.5.5,0,0,0,.433.25.5.5,0,0,0,.205-.044l2.14-.966a5.477,5.477,0,0,0,1.919,1.112L6.5,15.55A.5.5,0,0,0,7,16H9a.5.5,0,0,0,.5-.45l.233-2.332a5.477,5.477,0,0,0,1.919-1.112l2.14.966a.5.5,0,0,0,.205.044.5.5,0,0,0,.433-.25l1-1.732a.5.5,0,0,0-.141-.656l-1.9-1.366a5.528,5.528,0,0,0,0-2.224l1.9-1.366A.5.5,0,0,0,15.428,4.866ZM8,10a2,2,0,1,1,2-2A2,2,0,0,1,8,10Z"></path></g></svg>