<svg viewBox="0 0 88 88"
     fill="#ffffff"
     xmlns="http://www.w3.org/2000/svg">

  <path
        d="M34.8137 4L13.6737 25.172C10.2898 28.5555 7.60544 32.5724 5.77404 36.9933C3.94263 41.4143 3 46.1527 3 50.938C3 55.7233 3.94263 60.4617 5.77404 64.8827C7.60544 69.3036 10.2898 73.3205 13.6737 76.704L16.7017 79.732C15.0098 78.0404 13.6677 76.0321 12.752 73.8218C11.8363 71.6115 11.365 69.2425 11.365 66.85C11.365 64.4575 11.8363 62.0885 12.752 59.8781C13.6677 57.6678 15.0098 55.6596 16.7017 53.968L30.8097 39.86C33.3751 37.2873 34.8139 33.8012 34.8097 30.168L34.8137 4Z" />

  <path
        d="M86.3417 4L36.0137 54.332C34.305 56.0401 31.9878 56.9997 29.5717 56.9997C27.1556 56.9997 24.8385 56.0401 23.1297 54.332L22.2537 53.456L19.2257 56.484C16.4829 59.2285 14.9421 62.9499 14.9421 66.83C14.9421 70.7101 16.4829 74.4315 19.2257 77.176L21.7657 79.712C23.1241 81.0711 24.737 82.1492 26.5122 82.8847C28.2874 83.6203 30.1901 83.9989 32.1117 83.9989C34.0333 83.9989 35.936 83.6203 37.7112 82.8847C39.4864 82.1492 41.0993 81.0711 42.4577 79.712L82.3297 39.84C84.894 37.2665 86.3326 33.7809 86.3297 30.148L86.3417 4Z" />
</svg>
